M48
; DRILL file {KiCad 5.1.8-db9833491~88~ubuntu18.04.1} date Tue Jan  5 00:41:37 2021
; FORMAT={-:-/ absolute / inch / decimal}
; #@! TF.CreationDate,2021-01-05T00:41:37-08:00
; #@! TF.GenerationSoftware,Kicad,Pcbnew,5.1.8-db9833491~88~ubuntu18.04.1
FMAT,2
INCH
T1C0.0100
T2C0.0150
T3C0.0276
T4C0.0315
T5C0.0354
T6C0.0433
T7C0.0469
T8C0.0591
T9C0.1693
T10C0.0472
T11C0.0630
%
G90
G05
T1
X5.505Y-2.931
X5.53Y-1.751
X5.532Y-1.875
X5.562Y-3.2
X5.562Y-3.374
X5.5768Y-2.2352
X5.582Y-2.191
X5.583Y-2.381
X5.584Y-2.29
X5.589Y-2.027
X5.592Y-1.804
X5.595Y-1.928
X5.6Y-3.966
X5.6Y-4.343
X5.625Y-1.719
X5.69Y-2.052
X5.7Y-1.718
X5.7Y-3.902
X5.702Y-1.992
X5.705Y-1.871
X5.731Y-2.285
X5.739Y-4.458
X5.747Y-4.225
X5.747Y-4.375
X5.751Y-2.217
X5.757Y-1.99
X5.775Y-1.719
X5.78Y-2.055
X5.787Y-2.188
X5.7884Y-2.2628
X5.824Y-1.825
X5.875Y-3.966
X5.875Y-4.136
X5.9203Y-2.0955
X5.944Y-4.225
X5.945Y-4.532
X5.971Y-4.325
X5.988Y-3.889
X6.017Y-4.449
X6.05Y-4.151
X6.133Y-4.399
X6.435Y-2.03
X6.547Y-1.918
X6.619Y-4.183
X6.625Y-3.978
X6.675Y-3.792
X6.676Y-4.112
X6.684Y-1.808
X6.775Y-4.242
X6.8Y-3.748
X6.812Y-4.238
X6.826Y-4.108
X6.9Y-3.74
T2
X6.1299Y-1.9134
X6.25Y-2.3799
X6.2825Y-1.9577
X6.3199Y-2.3809
X6.3799Y-1.7411
X6.4498Y-1.7421
X6.5059Y-2.2795
X6.5305Y-1.7254
X6.5364Y-2.1526
X6.6024Y-2.0659
X6.6309Y-1.6713
X6.7185Y-2.0659
T3
X7.15Y-4.03
X7.15Y-4.13
T4
X6.3463Y-1.125
X6.425Y-1.125
X6.5037Y-1.125
X5.7713Y-4.875
X5.85Y-4.875
X5.9287Y-4.875
X5.7213Y-1.125
X5.8Y-1.125
X5.8787Y-1.125
T5
X7.15Y-2.055
X7.15Y-2.155
T6
X5.15Y-1.775
X5.3075Y-1.8734
X5.3862Y-1.6136
T7
X6.7Y-2.85
X6.8Y-2.85
X6.5Y-3.25
X6.6Y-3.25
X6.7Y-3.25
X6.8Y-3.25
X5.925Y-2.85
X6.025Y-2.85
X6.125Y-2.85
X6.225Y-2.85
X5.925Y-3.25
X6.025Y-3.25
X6.125Y-3.25
X6.225Y-3.25
T8
X5.6091Y-1.125
X5.9909Y-1.125
X6.2341Y-1.125
X6.6159Y-1.125
X5.6591Y-4.875
X6.0409Y-4.875
T9
X5.2Y-4.8
X7.2Y-4.8
X7.2Y-1.2
X5.2Y-1.2
T10
X5.0816Y-4.0281
X5.0816Y-4.4219
X5.18Y-4.0281
X5.18Y-4.4219
X5.3769Y-4.225
X5.0816Y-3.0381
X5.0816Y-3.4319
X5.18Y-3.0381
X5.18Y-3.4319
X5.3769Y-3.235
X5.0866Y-2.0231
X5.0866Y-2.4169
X5.185Y-2.0231
X5.185Y-2.4169
X5.3819Y-2.22
T11
X5.1697Y-1.6569
X5.1697Y-1.8537
T4
G00X5.18Y-3.2212
M15
G01X5.18Y-3.2488
M16
G05
G00X5.3631Y-3.0381
M15
G01X5.3906Y-3.0381
M16
G05
G00X5.3631Y-3.4319
M15
G01X5.3906Y-3.4319
M16
G05
G00X5.185Y-2.2062
M15
G01X5.185Y-2.2338
M16
G05
G00X5.3681Y-2.0231
M15
G01X5.3956Y-2.0231
M16
G05
G00X5.3681Y-2.4169
M15
G01X5.3956Y-2.4169
M16
G05
G00X5.18Y-4.2112
M15
G01X5.18Y-4.2388
M16
G05
G00X5.3631Y-4.0281
M15
G01X5.3906Y-4.0281
M16
G05
G00X5.3631Y-4.4219
M15
G01X5.3906Y-4.4219
M16
G05
T0
M30
