%TF.GenerationSoftware,KiCad,Pcbnew,(5.1.9)-1*%
%TF.CreationDate,2021-02-04T00:32:02-08:00*%
%TF.ProjectId,kb1lqd_optical_comm,6b62316c-7164-45f6-9f70-746963616c5f,rev?*%
%TF.SameCoordinates,Original*%
%TF.FileFunction,Soldermask,Top*%
%TF.FilePolarity,Negative*%
%FSLAX46Y46*%
G04 Gerber Fmt 4.6, Leading zero omitted, Abs format (unit mm)*
G04 Created by KiCad (PCBNEW (5.1.9)-1) date 2021-02-04 00:32:02*
%MOMM*%
%LPD*%
G01*
G04 APERTURE LIST*
%ADD10C,7.500102*%
%ADD11C,1.200102*%
%ADD12O,2.616102X1.308102*%
%ADD13O,1.308102X2.616102*%
%ADD14C,2.250102*%
%ADD15C,1.308102*%
%ADD16O,1.740102X2.190102*%
%ADD17C,1.600102*%
%ADD18C,1.650102*%
%ADD19O,1.200102X1.200102*%
%ADD20O,1.200102X1.600102*%
%ADD21C,1.800102*%
G04 APERTURE END LIST*
%TO.C,U2*%
G36*
G01*
X143152026Y-49935051D02*
X142851974Y-49935051D01*
G75*
G02*
X142701949Y-49785026I0J150025D01*
G01*
X142701949Y-48134974D01*
G75*
G02*
X142851974Y-47984949I150025J0D01*
G01*
X143152026Y-47984949D01*
G75*
G02*
X143302051Y-48134974I0J-150025D01*
G01*
X143302051Y-49785026D01*
G75*
G02*
X143152026Y-49935051I-150025J0D01*
G01*
G37*
G36*
G01*
X144422026Y-49935051D02*
X144121974Y-49935051D01*
G75*
G02*
X143971949Y-49785026I0J150025D01*
G01*
X143971949Y-48134974D01*
G75*
G02*
X144121974Y-47984949I150025J0D01*
G01*
X144422026Y-47984949D01*
G75*
G02*
X144572051Y-48134974I0J-150025D01*
G01*
X144572051Y-49785026D01*
G75*
G02*
X144422026Y-49935051I-150025J0D01*
G01*
G37*
G36*
G01*
X145692026Y-49935051D02*
X145391974Y-49935051D01*
G75*
G02*
X145241949Y-49785026I0J150025D01*
G01*
X145241949Y-48134974D01*
G75*
G02*
X145391974Y-47984949I150025J0D01*
G01*
X145692026Y-47984949D01*
G75*
G02*
X145842051Y-48134974I0J-150025D01*
G01*
X145842051Y-49785026D01*
G75*
G02*
X145692026Y-49935051I-150025J0D01*
G01*
G37*
G36*
G01*
X146962026Y-49935051D02*
X146661974Y-49935051D01*
G75*
G02*
X146511949Y-49785026I0J150025D01*
G01*
X146511949Y-48134974D01*
G75*
G02*
X146661974Y-47984949I150025J0D01*
G01*
X146962026Y-47984949D01*
G75*
G02*
X147112051Y-48134974I0J-150025D01*
G01*
X147112051Y-49785026D01*
G75*
G02*
X146962026Y-49935051I-150025J0D01*
G01*
G37*
G36*
G01*
X146962026Y-54885051D02*
X146661974Y-54885051D01*
G75*
G02*
X146511949Y-54735026I0J150025D01*
G01*
X146511949Y-53084974D01*
G75*
G02*
X146661974Y-52934949I150025J0D01*
G01*
X146962026Y-52934949D01*
G75*
G02*
X147112051Y-53084974I0J-150025D01*
G01*
X147112051Y-54735026D01*
G75*
G02*
X146962026Y-54885051I-150025J0D01*
G01*
G37*
G36*
G01*
X145692026Y-54885051D02*
X145391974Y-54885051D01*
G75*
G02*
X145241949Y-54735026I0J150025D01*
G01*
X145241949Y-53084974D01*
G75*
G02*
X145391974Y-52934949I150025J0D01*
G01*
X145692026Y-52934949D01*
G75*
G02*
X145842051Y-53084974I0J-150025D01*
G01*
X145842051Y-54735026D01*
G75*
G02*
X145692026Y-54885051I-150025J0D01*
G01*
G37*
G36*
G01*
X144422026Y-54885051D02*
X144121974Y-54885051D01*
G75*
G02*
X143971949Y-54735026I0J150025D01*
G01*
X143971949Y-53084974D01*
G75*
G02*
X144121974Y-52934949I150025J0D01*
G01*
X144422026Y-52934949D01*
G75*
G02*
X144572051Y-53084974I0J-150025D01*
G01*
X144572051Y-54735026D01*
G75*
G02*
X144422026Y-54885051I-150025J0D01*
G01*
G37*
G36*
G01*
X143152026Y-54885051D02*
X142851974Y-54885051D01*
G75*
G02*
X142701949Y-54735026I0J150025D01*
G01*
X142701949Y-53084974D01*
G75*
G02*
X142851974Y-52934949I150025J0D01*
G01*
X143152026Y-52934949D01*
G75*
G02*
X143302051Y-53084974I0J-150025D01*
G01*
X143302051Y-54735026D01*
G75*
G02*
X143152026Y-54885051I-150025J0D01*
G01*
G37*
%TD*%
D10*
%TO.C,H4*%
X182880000Y-121920000D03*
%TD*%
%TO.C,H3*%
X182880000Y-30480000D03*
%TD*%
%TO.C,H2*%
X132080000Y-121920000D03*
%TD*%
%TO.C,H1*%
X132080000Y-30480000D03*
%TD*%
D11*
%TO.C,J6*%
X131572000Y-112315000D03*
X129072000Y-112315000D03*
X136572000Y-107315000D03*
X131572000Y-102315000D03*
X129072000Y-102315000D03*
D12*
X136572000Y-102315000D03*
X136572000Y-112315000D03*
D13*
X131572000Y-107315000D03*
%TD*%
D11*
%TO.C,J3*%
X131572000Y-87169000D03*
X129072000Y-87169000D03*
X136572000Y-82169000D03*
X131572000Y-77169000D03*
X129072000Y-77169000D03*
D12*
X136572000Y-77169000D03*
X136572000Y-87169000D03*
D13*
X131572000Y-82169000D03*
%TD*%
D11*
%TO.C,J1*%
X131699000Y-61388000D03*
X129199000Y-61388000D03*
X136699000Y-56388000D03*
X131699000Y-51388000D03*
X129199000Y-51388000D03*
D12*
X136699000Y-51388000D03*
X136699000Y-61388000D03*
D13*
X131699000Y-56388000D03*
%TD*%
D14*
%TO.C,SW1*%
X142470000Y-28575000D03*
X152170000Y-28575000D03*
D15*
X145320000Y-28575000D03*
X149320000Y-28575000D03*
X147320000Y-28575000D03*
%TD*%
%TO.C,U5*%
G36*
G01*
X164568974Y-53696949D02*
X164869026Y-53696949D01*
G75*
G02*
X165019051Y-53846974I0J-150025D01*
G01*
X165019051Y-55497026D01*
G75*
G02*
X164869026Y-55647051I-150025J0D01*
G01*
X164568974Y-55647051D01*
G75*
G02*
X164418949Y-55497026I0J150025D01*
G01*
X164418949Y-53846974D01*
G75*
G02*
X164568974Y-53696949I150025J0D01*
G01*
G37*
G36*
G01*
X163298974Y-53696949D02*
X163599026Y-53696949D01*
G75*
G02*
X163749051Y-53846974I0J-150025D01*
G01*
X163749051Y-55497026D01*
G75*
G02*
X163599026Y-55647051I-150025J0D01*
G01*
X163298974Y-55647051D01*
G75*
G02*
X163148949Y-55497026I0J150025D01*
G01*
X163148949Y-53846974D01*
G75*
G02*
X163298974Y-53696949I150025J0D01*
G01*
G37*
G36*
G01*
X162028974Y-53696949D02*
X162329026Y-53696949D01*
G75*
G02*
X162479051Y-53846974I0J-150025D01*
G01*
X162479051Y-55497026D01*
G75*
G02*
X162329026Y-55647051I-150025J0D01*
G01*
X162028974Y-55647051D01*
G75*
G02*
X161878949Y-55497026I0J150025D01*
G01*
X161878949Y-53846974D01*
G75*
G02*
X162028974Y-53696949I150025J0D01*
G01*
G37*
G36*
G01*
X160758974Y-53696949D02*
X161059026Y-53696949D01*
G75*
G02*
X161209051Y-53846974I0J-150025D01*
G01*
X161209051Y-55497026D01*
G75*
G02*
X161059026Y-55647051I-150025J0D01*
G01*
X160758974Y-55647051D01*
G75*
G02*
X160608949Y-55497026I0J150025D01*
G01*
X160608949Y-53846974D01*
G75*
G02*
X160758974Y-53696949I150025J0D01*
G01*
G37*
G36*
G01*
X160758974Y-48746949D02*
X161059026Y-48746949D01*
G75*
G02*
X161209051Y-48896974I0J-150025D01*
G01*
X161209051Y-50547026D01*
G75*
G02*
X161059026Y-50697051I-150025J0D01*
G01*
X160758974Y-50697051D01*
G75*
G02*
X160608949Y-50547026I0J150025D01*
G01*
X160608949Y-48896974D01*
G75*
G02*
X160758974Y-48746949I150025J0D01*
G01*
G37*
G36*
G01*
X162028974Y-48746949D02*
X162329026Y-48746949D01*
G75*
G02*
X162479051Y-48896974I0J-150025D01*
G01*
X162479051Y-50547026D01*
G75*
G02*
X162329026Y-50697051I-150025J0D01*
G01*
X162028974Y-50697051D01*
G75*
G02*
X161878949Y-50547026I0J150025D01*
G01*
X161878949Y-48896974D01*
G75*
G02*
X162028974Y-48746949I150025J0D01*
G01*
G37*
G36*
G01*
X163298974Y-48746949D02*
X163599026Y-48746949D01*
G75*
G02*
X163749051Y-48896974I0J-150025D01*
G01*
X163749051Y-50547026D01*
G75*
G02*
X163599026Y-50697051I-150025J0D01*
G01*
X163298974Y-50697051D01*
G75*
G02*
X163148949Y-50547026I0J150025D01*
G01*
X163148949Y-48896974D01*
G75*
G02*
X163298974Y-48746949I150025J0D01*
G01*
G37*
G36*
G01*
X164568974Y-48746949D02*
X164869026Y-48746949D01*
G75*
G02*
X165019051Y-48896974I0J-150025D01*
G01*
X165019051Y-50547026D01*
G75*
G02*
X164869026Y-50697051I-150025J0D01*
G01*
X164568974Y-50697051D01*
G75*
G02*
X164418949Y-50547026I0J150025D01*
G01*
X164418949Y-48896974D01*
G75*
G02*
X164568974Y-48746949I150025J0D01*
G01*
G37*
%TD*%
%TO.C,U4*%
G36*
G01*
X148158149Y-107594400D02*
X148158149Y-107035600D01*
G75*
G02*
X148158200Y-107035549I51J0D01*
G01*
X150139400Y-107035549D01*
G75*
G02*
X150139451Y-107035600I0J-51D01*
G01*
X150139451Y-107594400D01*
G75*
G02*
X150139400Y-107594451I-51J0D01*
G01*
X148158200Y-107594451D01*
G75*
G02*
X148158149Y-107594400I0J51D01*
G01*
G37*
G36*
G01*
X148158149Y-108864400D02*
X148158149Y-108305600D01*
G75*
G02*
X148158200Y-108305549I51J0D01*
G01*
X150139400Y-108305549D01*
G75*
G02*
X150139451Y-108305600I0J-51D01*
G01*
X150139451Y-108864400D01*
G75*
G02*
X150139400Y-108864451I-51J0D01*
G01*
X148158200Y-108864451D01*
G75*
G02*
X148158149Y-108864400I0J51D01*
G01*
G37*
G36*
G01*
X148158149Y-110134400D02*
X148158149Y-109575600D01*
G75*
G02*
X148158200Y-109575549I51J0D01*
G01*
X150139400Y-109575549D01*
G75*
G02*
X150139451Y-109575600I0J-51D01*
G01*
X150139451Y-110134400D01*
G75*
G02*
X150139400Y-110134451I-51J0D01*
G01*
X148158200Y-110134451D01*
G75*
G02*
X148158149Y-110134400I0J51D01*
G01*
G37*
G36*
G01*
X148158149Y-111404400D02*
X148158149Y-110845600D01*
G75*
G02*
X148158200Y-110845549I51J0D01*
G01*
X150139400Y-110845549D01*
G75*
G02*
X150139451Y-110845600I0J-51D01*
G01*
X150139451Y-111404400D01*
G75*
G02*
X150139400Y-111404451I-51J0D01*
G01*
X148158200Y-111404451D01*
G75*
G02*
X148158149Y-111404400I0J51D01*
G01*
G37*
G36*
G01*
X143230549Y-111404400D02*
X143230549Y-110845600D01*
G75*
G02*
X143230600Y-110845549I51J0D01*
G01*
X145211800Y-110845549D01*
G75*
G02*
X145211851Y-110845600I0J-51D01*
G01*
X145211851Y-111404400D01*
G75*
G02*
X145211800Y-111404451I-51J0D01*
G01*
X143230600Y-111404451D01*
G75*
G02*
X143230549Y-111404400I0J51D01*
G01*
G37*
G36*
G01*
X143230549Y-110134400D02*
X143230549Y-109575600D01*
G75*
G02*
X143230600Y-109575549I51J0D01*
G01*
X145211800Y-109575549D01*
G75*
G02*
X145211851Y-109575600I0J-51D01*
G01*
X145211851Y-110134400D01*
G75*
G02*
X145211800Y-110134451I-51J0D01*
G01*
X143230600Y-110134451D01*
G75*
G02*
X143230549Y-110134400I0J51D01*
G01*
G37*
G36*
G01*
X143230549Y-108864400D02*
X143230549Y-108305600D01*
G75*
G02*
X143230600Y-108305549I51J0D01*
G01*
X145211800Y-108305549D01*
G75*
G02*
X145211851Y-108305600I0J-51D01*
G01*
X145211851Y-108864400D01*
G75*
G02*
X145211800Y-108864451I-51J0D01*
G01*
X143230600Y-108864451D01*
G75*
G02*
X143230549Y-108864400I0J51D01*
G01*
G37*
G36*
G01*
X143230549Y-107594400D02*
X143230549Y-107035600D01*
G75*
G02*
X143230600Y-107035549I51J0D01*
G01*
X145211800Y-107035549D01*
G75*
G02*
X145211851Y-107035600I0J-51D01*
G01*
X145211851Y-107594400D01*
G75*
G02*
X145211800Y-107594451I-51J0D01*
G01*
X143230600Y-107594451D01*
G75*
G02*
X143230549Y-107594400I0J51D01*
G01*
G37*
%TD*%
%TO.C,U3*%
G36*
G01*
X173204974Y-105004949D02*
X173505026Y-105004949D01*
G75*
G02*
X173655051Y-105154974I0J-150025D01*
G01*
X173655051Y-106805026D01*
G75*
G02*
X173505026Y-106955051I-150025J0D01*
G01*
X173204974Y-106955051D01*
G75*
G02*
X173054949Y-106805026I0J150025D01*
G01*
X173054949Y-105154974D01*
G75*
G02*
X173204974Y-105004949I150025J0D01*
G01*
G37*
G36*
G01*
X171934974Y-105004949D02*
X172235026Y-105004949D01*
G75*
G02*
X172385051Y-105154974I0J-150025D01*
G01*
X172385051Y-106805026D01*
G75*
G02*
X172235026Y-106955051I-150025J0D01*
G01*
X171934974Y-106955051D01*
G75*
G02*
X171784949Y-106805026I0J150025D01*
G01*
X171784949Y-105154974D01*
G75*
G02*
X171934974Y-105004949I150025J0D01*
G01*
G37*
G36*
G01*
X170664974Y-105004949D02*
X170965026Y-105004949D01*
G75*
G02*
X171115051Y-105154974I0J-150025D01*
G01*
X171115051Y-106805026D01*
G75*
G02*
X170965026Y-106955051I-150025J0D01*
G01*
X170664974Y-106955051D01*
G75*
G02*
X170514949Y-106805026I0J150025D01*
G01*
X170514949Y-105154974D01*
G75*
G02*
X170664974Y-105004949I150025J0D01*
G01*
G37*
G36*
G01*
X169394974Y-105004949D02*
X169695026Y-105004949D01*
G75*
G02*
X169845051Y-105154974I0J-150025D01*
G01*
X169845051Y-106805026D01*
G75*
G02*
X169695026Y-106955051I-150025J0D01*
G01*
X169394974Y-106955051D01*
G75*
G02*
X169244949Y-106805026I0J150025D01*
G01*
X169244949Y-105154974D01*
G75*
G02*
X169394974Y-105004949I150025J0D01*
G01*
G37*
G36*
G01*
X169394974Y-100054949D02*
X169695026Y-100054949D01*
G75*
G02*
X169845051Y-100204974I0J-150025D01*
G01*
X169845051Y-101855026D01*
G75*
G02*
X169695026Y-102005051I-150025J0D01*
G01*
X169394974Y-102005051D01*
G75*
G02*
X169244949Y-101855026I0J150025D01*
G01*
X169244949Y-100204974D01*
G75*
G02*
X169394974Y-100054949I150025J0D01*
G01*
G37*
G36*
G01*
X170664974Y-100054949D02*
X170965026Y-100054949D01*
G75*
G02*
X171115051Y-100204974I0J-150025D01*
G01*
X171115051Y-101855026D01*
G75*
G02*
X170965026Y-102005051I-150025J0D01*
G01*
X170664974Y-102005051D01*
G75*
G02*
X170514949Y-101855026I0J150025D01*
G01*
X170514949Y-100204974D01*
G75*
G02*
X170664974Y-100054949I150025J0D01*
G01*
G37*
G36*
G01*
X171934974Y-100054949D02*
X172235026Y-100054949D01*
G75*
G02*
X172385051Y-100204974I0J-150025D01*
G01*
X172385051Y-101855026D01*
G75*
G02*
X172235026Y-102005051I-150025J0D01*
G01*
X171934974Y-102005051D01*
G75*
G02*
X171784949Y-101855026I0J150025D01*
G01*
X171784949Y-100204974D01*
G75*
G02*
X171934974Y-100054949I150025J0D01*
G01*
G37*
G36*
G01*
X173204974Y-100054949D02*
X173505026Y-100054949D01*
G75*
G02*
X173655051Y-100204974I0J-150025D01*
G01*
X173655051Y-101855026D01*
G75*
G02*
X173505026Y-102005051I-150025J0D01*
G01*
X173204974Y-102005051D01*
G75*
G02*
X173054949Y-101855026I0J150025D01*
G01*
X173054949Y-100204974D01*
G75*
G02*
X173204974Y-100054949I150025J0D01*
G01*
G37*
%TD*%
D14*
%TO.C,SW3*%
X158345000Y-28575000D03*
X168045000Y-28575000D03*
D15*
X161195000Y-28575000D03*
X165195000Y-28575000D03*
X163195000Y-28575000D03*
%TD*%
D14*
%TO.C,SW2*%
X153440000Y-123825000D03*
X143740000Y-123825000D03*
D15*
X150590000Y-123825000D03*
X146590000Y-123825000D03*
X148590000Y-123825000D03*
%TD*%
D16*
%TO.C,RV2*%
X150495000Y-72390000D03*
X153035000Y-72390000D03*
X155575000Y-72390000D03*
G36*
G01*
X158985051Y-71544962D02*
X158985051Y-73235038D01*
G75*
G02*
X158735038Y-73485051I-250013J0D01*
G01*
X157494962Y-73485051D01*
G75*
G02*
X157244949Y-73235038I0J250013D01*
G01*
X157244949Y-71544962D01*
G75*
G02*
X157494962Y-71294949I250013J0D01*
G01*
X158735038Y-71294949D01*
G75*
G02*
X158985051Y-71544962I0J-250013D01*
G01*
G37*
%TD*%
%TO.C,RV1*%
X150495000Y-82550000D03*
X153035000Y-82550000D03*
X155575000Y-82550000D03*
G36*
G01*
X158985051Y-81704962D02*
X158985051Y-83395038D01*
G75*
G02*
X158735038Y-83645051I-250013J0D01*
G01*
X157494962Y-83645051D01*
G75*
G02*
X157244949Y-83395038I0J250013D01*
G01*
X157244949Y-81704962D01*
G75*
G02*
X157494962Y-81454949I250013J0D01*
G01*
X158735038Y-81454949D01*
G75*
G02*
X158985051Y-81704962I0J-250013D01*
G01*
G37*
%TD*%
%TO.C,R34*%
G36*
G01*
X144417949Y-57219029D02*
X144417949Y-56318971D01*
G75*
G02*
X144667971Y-56068949I250022J0D01*
G01*
X145193029Y-56068949D01*
G75*
G02*
X145443051Y-56318971I0J-250022D01*
G01*
X145443051Y-57219029D01*
G75*
G02*
X145193029Y-57469051I-250022J0D01*
G01*
X144667971Y-57469051D01*
G75*
G02*
X144417949Y-57219029I0J250022D01*
G01*
G37*
G36*
G01*
X142592949Y-57219029D02*
X142592949Y-56318971D01*
G75*
G02*
X142842971Y-56068949I250022J0D01*
G01*
X143368029Y-56068949D01*
G75*
G02*
X143618051Y-56318971I0J-250022D01*
G01*
X143618051Y-57219029D01*
G75*
G02*
X143368029Y-57469051I-250022J0D01*
G01*
X142842971Y-57469051D01*
G75*
G02*
X142592949Y-57219029I0J250022D01*
G01*
G37*
%TD*%
%TO.C,R33*%
G36*
G01*
X150135026Y-113875051D02*
X149584974Y-113875051D01*
G75*
G02*
X149384949Y-113675026I0J200025D01*
G01*
X149384949Y-113274974D01*
G75*
G02*
X149584974Y-113074949I200025J0D01*
G01*
X150135026Y-113074949D01*
G75*
G02*
X150335051Y-113274974I0J-200025D01*
G01*
X150335051Y-113675026D01*
G75*
G02*
X150135026Y-113875051I-200025J0D01*
G01*
G37*
G36*
G01*
X150135026Y-115525051D02*
X149584974Y-115525051D01*
G75*
G02*
X149384949Y-115325026I0J200025D01*
G01*
X149384949Y-114924974D01*
G75*
G02*
X149584974Y-114724949I200025J0D01*
G01*
X150135026Y-114724949D01*
G75*
G02*
X150335051Y-114924974I0J-200025D01*
G01*
X150335051Y-115325026D01*
G75*
G02*
X150135026Y-115525051I-200025J0D01*
G01*
G37*
%TD*%
%TO.C,R31*%
G36*
G01*
X154094949Y-110130026D02*
X154094949Y-109579974D01*
G75*
G02*
X154294974Y-109379949I200025J0D01*
G01*
X154695026Y-109379949D01*
G75*
G02*
X154895051Y-109579974I0J-200025D01*
G01*
X154895051Y-110130026D01*
G75*
G02*
X154695026Y-110330051I-200025J0D01*
G01*
X154294974Y-110330051D01*
G75*
G02*
X154094949Y-110130026I0J200025D01*
G01*
G37*
G36*
G01*
X152444949Y-110130026D02*
X152444949Y-109579974D01*
G75*
G02*
X152644974Y-109379949I200025J0D01*
G01*
X153045026Y-109379949D01*
G75*
G02*
X153245051Y-109579974I0J-200025D01*
G01*
X153245051Y-110130026D01*
G75*
G02*
X153045026Y-110330051I-200025J0D01*
G01*
X152644974Y-110330051D01*
G75*
G02*
X152444949Y-110130026I0J200025D01*
G01*
G37*
%TD*%
%TO.C,R30*%
G36*
G01*
X153245051Y-107674974D02*
X153245051Y-108225026D01*
G75*
G02*
X153045026Y-108425051I-200025J0D01*
G01*
X152644974Y-108425051D01*
G75*
G02*
X152444949Y-108225026I0J200025D01*
G01*
X152444949Y-107674974D01*
G75*
G02*
X152644974Y-107474949I200025J0D01*
G01*
X153045026Y-107474949D01*
G75*
G02*
X153245051Y-107674974I0J-200025D01*
G01*
G37*
G36*
G01*
X154895051Y-107674974D02*
X154895051Y-108225026D01*
G75*
G02*
X154695026Y-108425051I-200025J0D01*
G01*
X154294974Y-108425051D01*
G75*
G02*
X154094949Y-108225026I0J200025D01*
G01*
X154094949Y-107674974D01*
G75*
G02*
X154294974Y-107474949I200025J0D01*
G01*
X154695026Y-107474949D01*
G75*
G02*
X154895051Y-107674974I0J-200025D01*
G01*
G37*
%TD*%
%TO.C,R28*%
G36*
G01*
X142515026Y-102445051D02*
X141964974Y-102445051D01*
G75*
G02*
X141764949Y-102245026I0J200025D01*
G01*
X141764949Y-101844974D01*
G75*
G02*
X141964974Y-101644949I200025J0D01*
G01*
X142515026Y-101644949D01*
G75*
G02*
X142715051Y-101844974I0J-200025D01*
G01*
X142715051Y-102245026D01*
G75*
G02*
X142515026Y-102445051I-200025J0D01*
G01*
G37*
G36*
G01*
X142515026Y-104095051D02*
X141964974Y-104095051D01*
G75*
G02*
X141764949Y-103895026I0J200025D01*
G01*
X141764949Y-103494974D01*
G75*
G02*
X141964974Y-103294949I200025J0D01*
G01*
X142515026Y-103294949D01*
G75*
G02*
X142715051Y-103494974I0J-200025D01*
G01*
X142715051Y-103895026D01*
G75*
G02*
X142515026Y-104095051I-200025J0D01*
G01*
G37*
%TD*%
%TO.C,R27*%
G36*
G01*
X167280026Y-104985051D02*
X166729974Y-104985051D01*
G75*
G02*
X166529949Y-104785026I0J200025D01*
G01*
X166529949Y-104384974D01*
G75*
G02*
X166729974Y-104184949I200025J0D01*
G01*
X167280026Y-104184949D01*
G75*
G02*
X167480051Y-104384974I0J-200025D01*
G01*
X167480051Y-104785026D01*
G75*
G02*
X167280026Y-104985051I-200025J0D01*
G01*
G37*
G36*
G01*
X167280026Y-106635051D02*
X166729974Y-106635051D01*
G75*
G02*
X166529949Y-106435026I0J200025D01*
G01*
X166529949Y-106034974D01*
G75*
G02*
X166729974Y-105834949I200025J0D01*
G01*
X167280026Y-105834949D01*
G75*
G02*
X167480051Y-106034974I0J-200025D01*
G01*
X167480051Y-106435026D01*
G75*
G02*
X167280026Y-106635051I-200025J0D01*
G01*
G37*
%TD*%
%TO.C,R26*%
G36*
G01*
X172995026Y-96730051D02*
X172444974Y-96730051D01*
G75*
G02*
X172244949Y-96530026I0J200025D01*
G01*
X172244949Y-96129974D01*
G75*
G02*
X172444974Y-95929949I200025J0D01*
G01*
X172995026Y-95929949D01*
G75*
G02*
X173195051Y-96129974I0J-200025D01*
G01*
X173195051Y-96530026D01*
G75*
G02*
X172995026Y-96730051I-200025J0D01*
G01*
G37*
G36*
G01*
X172995026Y-98380051D02*
X172444974Y-98380051D01*
G75*
G02*
X172244949Y-98180026I0J200025D01*
G01*
X172244949Y-97779974D01*
G75*
G02*
X172444974Y-97579949I200025J0D01*
G01*
X172995026Y-97579949D01*
G75*
G02*
X173195051Y-97779974I0J-200025D01*
G01*
X173195051Y-98180026D01*
G75*
G02*
X172995026Y-98380051I-200025J0D01*
G01*
G37*
%TD*%
%TO.C,R25*%
G36*
G01*
X170539974Y-97579949D02*
X171090026Y-97579949D01*
G75*
G02*
X171290051Y-97779974I0J-200025D01*
G01*
X171290051Y-98180026D01*
G75*
G02*
X171090026Y-98380051I-200025J0D01*
G01*
X170539974Y-98380051D01*
G75*
G02*
X170339949Y-98180026I0J200025D01*
G01*
X170339949Y-97779974D01*
G75*
G02*
X170539974Y-97579949I200025J0D01*
G01*
G37*
G36*
G01*
X170539974Y-95929949D02*
X171090026Y-95929949D01*
G75*
G02*
X171290051Y-96129974I0J-200025D01*
G01*
X171290051Y-96530026D01*
G75*
G02*
X171090026Y-96730051I-200025J0D01*
G01*
X170539974Y-96730051D01*
G75*
G02*
X170339949Y-96530026I0J200025D01*
G01*
X170339949Y-96129974D01*
G75*
G02*
X170539974Y-95929949I200025J0D01*
G01*
G37*
%TD*%
%TO.C,R24*%
G36*
G01*
X148927051Y-48365974D02*
X148927051Y-48916026D01*
G75*
G02*
X148727026Y-49116051I-200025J0D01*
G01*
X148326974Y-49116051D01*
G75*
G02*
X148126949Y-48916026I0J200025D01*
G01*
X148126949Y-48365974D01*
G75*
G02*
X148326974Y-48165949I200025J0D01*
G01*
X148727026Y-48165949D01*
G75*
G02*
X148927051Y-48365974I0J-200025D01*
G01*
G37*
G36*
G01*
X150577051Y-48365974D02*
X150577051Y-48916026D01*
G75*
G02*
X150377026Y-49116051I-200025J0D01*
G01*
X149976974Y-49116051D01*
G75*
G02*
X149776949Y-48916026I0J200025D01*
G01*
X149776949Y-48365974D01*
G75*
G02*
X149976974Y-48165949I200025J0D01*
G01*
X150377026Y-48165949D01*
G75*
G02*
X150577051Y-48365974I0J-200025D01*
G01*
G37*
%TD*%
%TO.C,R23*%
G36*
G01*
X148314974Y-51605949D02*
X148865026Y-51605949D01*
G75*
G02*
X149065051Y-51805974I0J-200025D01*
G01*
X149065051Y-52206026D01*
G75*
G02*
X148865026Y-52406051I-200025J0D01*
G01*
X148314974Y-52406051D01*
G75*
G02*
X148114949Y-52206026I0J200025D01*
G01*
X148114949Y-51805974D01*
G75*
G02*
X148314974Y-51605949I200025J0D01*
G01*
G37*
G36*
G01*
X148314974Y-49955949D02*
X148865026Y-49955949D01*
G75*
G02*
X149065051Y-50155974I0J-200025D01*
G01*
X149065051Y-50556026D01*
G75*
G02*
X148865026Y-50756051I-200025J0D01*
G01*
X148314974Y-50756051D01*
G75*
G02*
X148114949Y-50556026I0J200025D01*
G01*
X148114949Y-50155974D01*
G75*
G02*
X148314974Y-49955949I200025J0D01*
G01*
G37*
%TD*%
%TO.C,R22*%
G36*
G01*
X144504974Y-46144949D02*
X145055026Y-46144949D01*
G75*
G02*
X145255051Y-46344974I0J-200025D01*
G01*
X145255051Y-46745026D01*
G75*
G02*
X145055026Y-46945051I-200025J0D01*
G01*
X144504974Y-46945051D01*
G75*
G02*
X144304949Y-46745026I0J200025D01*
G01*
X144304949Y-46344974D01*
G75*
G02*
X144504974Y-46144949I200025J0D01*
G01*
G37*
G36*
G01*
X144504974Y-44494949D02*
X145055026Y-44494949D01*
G75*
G02*
X145255051Y-44694974I0J-200025D01*
G01*
X145255051Y-45095026D01*
G75*
G02*
X145055026Y-45295051I-200025J0D01*
G01*
X144504974Y-45295051D01*
G75*
G02*
X144304949Y-45095026I0J200025D01*
G01*
X144304949Y-44694974D01*
G75*
G02*
X144504974Y-44494949I200025J0D01*
G01*
G37*
%TD*%
%TO.C,R21*%
G36*
G01*
X143150026Y-45295051D02*
X142599974Y-45295051D01*
G75*
G02*
X142399949Y-45095026I0J200025D01*
G01*
X142399949Y-44694974D01*
G75*
G02*
X142599974Y-44494949I200025J0D01*
G01*
X143150026Y-44494949D01*
G75*
G02*
X143350051Y-44694974I0J-200025D01*
G01*
X143350051Y-45095026D01*
G75*
G02*
X143150026Y-45295051I-200025J0D01*
G01*
G37*
G36*
G01*
X143150026Y-46945051D02*
X142599974Y-46945051D01*
G75*
G02*
X142399949Y-46745026I0J200025D01*
G01*
X142399949Y-46344974D01*
G75*
G02*
X142599974Y-46144949I200025J0D01*
G01*
X143150026Y-46144949D01*
G75*
G02*
X143350051Y-46344974I0J-200025D01*
G01*
X143350051Y-46745026D01*
G75*
G02*
X143150026Y-46945051I-200025J0D01*
G01*
G37*
%TD*%
%TO.C,R20*%
G36*
G01*
X141092626Y-51873651D02*
X140542574Y-51873651D01*
G75*
G02*
X140342549Y-51673626I0J200025D01*
G01*
X140342549Y-51273574D01*
G75*
G02*
X140542574Y-51073549I200025J0D01*
G01*
X141092626Y-51073549D01*
G75*
G02*
X141292651Y-51273574I0J-200025D01*
G01*
X141292651Y-51673626D01*
G75*
G02*
X141092626Y-51873651I-200025J0D01*
G01*
G37*
G36*
G01*
X141092626Y-53523651D02*
X140542574Y-53523651D01*
G75*
G02*
X140342549Y-53323626I0J200025D01*
G01*
X140342549Y-52923574D01*
G75*
G02*
X140542574Y-52723549I200025J0D01*
G01*
X141092626Y-52723549D01*
G75*
G02*
X141292651Y-52923574I0J-200025D01*
G01*
X141292651Y-53323626D01*
G75*
G02*
X141092626Y-53523651I-200025J0D01*
G01*
G37*
%TD*%
%TO.C,R15*%
G36*
G01*
X164105026Y-45930051D02*
X163554974Y-45930051D01*
G75*
G02*
X163354949Y-45730026I0J200025D01*
G01*
X163354949Y-45329974D01*
G75*
G02*
X163554974Y-45129949I200025J0D01*
G01*
X164105026Y-45129949D01*
G75*
G02*
X164305051Y-45329974I0J-200025D01*
G01*
X164305051Y-45730026D01*
G75*
G02*
X164105026Y-45930051I-200025J0D01*
G01*
G37*
G36*
G01*
X164105026Y-47580051D02*
X163554974Y-47580051D01*
G75*
G02*
X163354949Y-47380026I0J200025D01*
G01*
X163354949Y-46979974D01*
G75*
G02*
X163554974Y-46779949I200025J0D01*
G01*
X164105026Y-46779949D01*
G75*
G02*
X164305051Y-46979974I0J-200025D01*
G01*
X164305051Y-47380026D01*
G75*
G02*
X164105026Y-47580051I-200025J0D01*
G01*
G37*
%TD*%
%TO.C,R14*%
G36*
G01*
X161776974Y-46779949D02*
X162327026Y-46779949D01*
G75*
G02*
X162527051Y-46979974I0J-200025D01*
G01*
X162527051Y-47380026D01*
G75*
G02*
X162327026Y-47580051I-200025J0D01*
G01*
X161776974Y-47580051D01*
G75*
G02*
X161576949Y-47380026I0J200025D01*
G01*
X161576949Y-46979974D01*
G75*
G02*
X161776974Y-46779949I200025J0D01*
G01*
G37*
G36*
G01*
X161776974Y-45129949D02*
X162327026Y-45129949D01*
G75*
G02*
X162527051Y-45329974I0J-200025D01*
G01*
X162527051Y-45730026D01*
G75*
G02*
X162327026Y-45930051I-200025J0D01*
G01*
X161776974Y-45930051D01*
G75*
G02*
X161576949Y-45730026I0J200025D01*
G01*
X161576949Y-45329974D01*
G75*
G02*
X161776974Y-45129949I200025J0D01*
G01*
G37*
%TD*%
%TO.C,R12*%
G36*
G01*
X164359026Y-57868051D02*
X163808974Y-57868051D01*
G75*
G02*
X163608949Y-57668026I0J200025D01*
G01*
X163608949Y-57267974D01*
G75*
G02*
X163808974Y-57067949I200025J0D01*
G01*
X164359026Y-57067949D01*
G75*
G02*
X164559051Y-57267974I0J-200025D01*
G01*
X164559051Y-57668026D01*
G75*
G02*
X164359026Y-57868051I-200025J0D01*
G01*
G37*
G36*
G01*
X164359026Y-59518051D02*
X163808974Y-59518051D01*
G75*
G02*
X163608949Y-59318026I0J200025D01*
G01*
X163608949Y-58917974D01*
G75*
G02*
X163808974Y-58717949I200025J0D01*
G01*
X164359026Y-58717949D01*
G75*
G02*
X164559051Y-58917974I0J-200025D01*
G01*
X164559051Y-59318026D01*
G75*
G02*
X164359026Y-59518051I-200025J0D01*
G01*
G37*
%TD*%
%TO.C,R11*%
G36*
G01*
X162581026Y-57868051D02*
X162030974Y-57868051D01*
G75*
G02*
X161830949Y-57668026I0J200025D01*
G01*
X161830949Y-57267974D01*
G75*
G02*
X162030974Y-57067949I200025J0D01*
G01*
X162581026Y-57067949D01*
G75*
G02*
X162781051Y-57267974I0J-200025D01*
G01*
X162781051Y-57668026D01*
G75*
G02*
X162581026Y-57868051I-200025J0D01*
G01*
G37*
G36*
G01*
X162581026Y-59518051D02*
X162030974Y-59518051D01*
G75*
G02*
X161830949Y-59318026I0J200025D01*
G01*
X161830949Y-58917974D01*
G75*
G02*
X162030974Y-58717949I200025J0D01*
G01*
X162581026Y-58717949D01*
G75*
G02*
X162781051Y-58917974I0J-200025D01*
G01*
X162781051Y-59318026D01*
G75*
G02*
X162581026Y-59518051I-200025J0D01*
G01*
G37*
%TD*%
%TO.C,R10*%
G36*
G01*
X160252974Y-58717949D02*
X160803026Y-58717949D01*
G75*
G02*
X161003051Y-58917974I0J-200025D01*
G01*
X161003051Y-59318026D01*
G75*
G02*
X160803026Y-59518051I-200025J0D01*
G01*
X160252974Y-59518051D01*
G75*
G02*
X160052949Y-59318026I0J200025D01*
G01*
X160052949Y-58917974D01*
G75*
G02*
X160252974Y-58717949I200025J0D01*
G01*
G37*
G36*
G01*
X160252974Y-57067949D02*
X160803026Y-57067949D01*
G75*
G02*
X161003051Y-57267974I0J-200025D01*
G01*
X161003051Y-57668026D01*
G75*
G02*
X160803026Y-57868051I-200025J0D01*
G01*
X160252974Y-57868051D01*
G75*
G02*
X160052949Y-57668026I0J200025D01*
G01*
X160052949Y-57267974D01*
G75*
G02*
X160252974Y-57067949I200025J0D01*
G01*
G37*
%TD*%
%TO.C,R9*%
G36*
G01*
X159025026Y-57868051D02*
X158474974Y-57868051D01*
G75*
G02*
X158274949Y-57668026I0J200025D01*
G01*
X158274949Y-57267974D01*
G75*
G02*
X158474974Y-57067949I200025J0D01*
G01*
X159025026Y-57067949D01*
G75*
G02*
X159225051Y-57267974I0J-200025D01*
G01*
X159225051Y-57668026D01*
G75*
G02*
X159025026Y-57868051I-200025J0D01*
G01*
G37*
G36*
G01*
X159025026Y-59518051D02*
X158474974Y-59518051D01*
G75*
G02*
X158274949Y-59318026I0J200025D01*
G01*
X158274949Y-58917974D01*
G75*
G02*
X158474974Y-58717949I200025J0D01*
G01*
X159025026Y-58717949D01*
G75*
G02*
X159225051Y-58917974I0J-200025D01*
G01*
X159225051Y-59318026D01*
G75*
G02*
X159025026Y-59518051I-200025J0D01*
G01*
G37*
%TD*%
%TO.C,R8*%
G36*
G01*
X155426974Y-55542949D02*
X155977026Y-55542949D01*
G75*
G02*
X156177051Y-55742974I0J-200025D01*
G01*
X156177051Y-56143026D01*
G75*
G02*
X155977026Y-56343051I-200025J0D01*
G01*
X155426974Y-56343051D01*
G75*
G02*
X155226949Y-56143026I0J200025D01*
G01*
X155226949Y-55742974D01*
G75*
G02*
X155426974Y-55542949I200025J0D01*
G01*
G37*
G36*
G01*
X155426974Y-53892949D02*
X155977026Y-53892949D01*
G75*
G02*
X156177051Y-54092974I0J-200025D01*
G01*
X156177051Y-54493026D01*
G75*
G02*
X155977026Y-54693051I-200025J0D01*
G01*
X155426974Y-54693051D01*
G75*
G02*
X155226949Y-54493026I0J200025D01*
G01*
X155226949Y-54092974D01*
G75*
G02*
X155426974Y-53892949I200025J0D01*
G01*
G37*
%TD*%
%TO.C,R7*%
G36*
G01*
X137584949Y-95525026D02*
X137584949Y-94974974D01*
G75*
G02*
X137784974Y-94774949I200025J0D01*
G01*
X138185026Y-94774949D01*
G75*
G02*
X138385051Y-94974974I0J-200025D01*
G01*
X138385051Y-95525026D01*
G75*
G02*
X138185026Y-95725051I-200025J0D01*
G01*
X137784974Y-95725051D01*
G75*
G02*
X137584949Y-95525026I0J200025D01*
G01*
G37*
G36*
G01*
X135934949Y-95525026D02*
X135934949Y-94974974D01*
G75*
G02*
X136134974Y-94774949I200025J0D01*
G01*
X136535026Y-94774949D01*
G75*
G02*
X136735051Y-94974974I0J-200025D01*
G01*
X136735051Y-95525026D01*
G75*
G02*
X136535026Y-95725051I-200025J0D01*
G01*
X136134974Y-95725051D01*
G75*
G02*
X135934949Y-95525026I0J200025D01*
G01*
G37*
%TD*%
%TO.C,R6*%
G36*
G01*
X153245051Y-111484974D02*
X153245051Y-112035026D01*
G75*
G02*
X153045026Y-112235051I-200025J0D01*
G01*
X152644974Y-112235051D01*
G75*
G02*
X152444949Y-112035026I0J200025D01*
G01*
X152444949Y-111484974D01*
G75*
G02*
X152644974Y-111284949I200025J0D01*
G01*
X153045026Y-111284949D01*
G75*
G02*
X153245051Y-111484974I0J-200025D01*
G01*
G37*
G36*
G01*
X154895051Y-111484974D02*
X154895051Y-112035026D01*
G75*
G02*
X154695026Y-112235051I-200025J0D01*
G01*
X154294974Y-112235051D01*
G75*
G02*
X154094949Y-112035026I0J200025D01*
G01*
X154094949Y-111484974D01*
G75*
G02*
X154294974Y-111284949I200025J0D01*
G01*
X154695026Y-111284949D01*
G75*
G02*
X154895051Y-111484974I0J-200025D01*
G01*
G37*
%TD*%
%TO.C,Q1*%
G36*
G01*
X167935949Y-58947000D02*
X167935949Y-58147000D01*
G75*
G02*
X167936000Y-58146949I51J0D01*
G01*
X168836000Y-58146949D01*
G75*
G02*
X168836051Y-58147000I0J-51D01*
G01*
X168836051Y-58947000D01*
G75*
G02*
X168836000Y-58947051I-51J0D01*
G01*
X167936000Y-58947051D01*
G75*
G02*
X167935949Y-58947000I0J51D01*
G01*
G37*
G36*
G01*
X165935949Y-59897000D02*
X165935949Y-59097000D01*
G75*
G02*
X165936000Y-59096949I51J0D01*
G01*
X166836000Y-59096949D01*
G75*
G02*
X166836051Y-59097000I0J-51D01*
G01*
X166836051Y-59897000D01*
G75*
G02*
X166836000Y-59897051I-51J0D01*
G01*
X165936000Y-59897051D01*
G75*
G02*
X165935949Y-59897000I0J51D01*
G01*
G37*
G36*
G01*
X165935949Y-57997000D02*
X165935949Y-57197000D01*
G75*
G02*
X165936000Y-57196949I51J0D01*
G01*
X166836000Y-57196949D01*
G75*
G02*
X166836051Y-57197000I0J-51D01*
G01*
X166836051Y-57997000D01*
G75*
G02*
X166836000Y-57997051I-51J0D01*
G01*
X165936000Y-57997051D01*
G75*
G02*
X165935949Y-57997000I0J51D01*
G01*
G37*
%TD*%
%TO.C,J5*%
X170180000Y-72390000D03*
G36*
G01*
X173590051Y-71544962D02*
X173590051Y-73235038D01*
G75*
G02*
X173340038Y-73485051I-250013J0D01*
G01*
X172099962Y-73485051D01*
G75*
G02*
X171849949Y-73235038I0J250013D01*
G01*
X171849949Y-71544962D01*
G75*
G02*
X172099962Y-71294949I250013J0D01*
G01*
X173340038Y-71294949D01*
G75*
G02*
X173590051Y-71544962I0J-250013D01*
G01*
G37*
%TD*%
%TO.C,J4*%
X165100000Y-82550000D03*
X167640000Y-82550000D03*
X170180000Y-82550000D03*
G36*
G01*
X173590051Y-81704962D02*
X173590051Y-83395038D01*
G75*
G02*
X173340038Y-83645051I-250013J0D01*
G01*
X172099962Y-83645051D01*
G75*
G02*
X171849949Y-83395038I0J250013D01*
G01*
X171849949Y-81704962D01*
G75*
G02*
X172099962Y-81454949I250013J0D01*
G01*
X173340038Y-81454949D01*
G75*
G02*
X173590051Y-81704962I0J-250013D01*
G01*
G37*
%TD*%
D17*
%TO.C,J2*%
X131310000Y-47085000D03*
X131310000Y-42085000D03*
D18*
X134810000Y-47585000D03*
X136810000Y-40985000D03*
G36*
G01*
X131635051Y-44260000D02*
X131635051Y-45910000D01*
G75*
G02*
X131635000Y-45910051I-51J0D01*
G01*
X129985000Y-45910051D01*
G75*
G02*
X129984949Y-45910000I0J51D01*
G01*
X129984949Y-44260000D01*
G75*
G02*
X129985000Y-44259949I51J0D01*
G01*
X131635000Y-44259949D01*
G75*
G02*
X131635051Y-44260000I0J-51D01*
G01*
G37*
%TD*%
D19*
%TO.C,D2*%
X181610000Y-104902000D03*
D20*
X181610000Y-102362000D03*
%TD*%
D21*
%TO.C,D1*%
X181610000Y-52197000D03*
G36*
G01*
X182510000Y-55637051D02*
X180710000Y-55637051D01*
G75*
G02*
X180709949Y-55637000I0J51D01*
G01*
X180709949Y-53837000D01*
G75*
G02*
X180710000Y-53836949I51J0D01*
G01*
X182510000Y-53836949D01*
G75*
G02*
X182510051Y-53837000I0J-51D01*
G01*
X182510051Y-55637000D01*
G75*
G02*
X182510000Y-55637051I-51J0D01*
G01*
G37*
%TD*%
%TO.C,C22*%
G36*
G01*
X150618026Y-50856051D02*
X150117974Y-50856051D01*
G75*
G02*
X149892949Y-50631026I0J225025D01*
G01*
X149892949Y-50180974D01*
G75*
G02*
X150117974Y-49955949I225025J0D01*
G01*
X150618026Y-49955949D01*
G75*
G02*
X150843051Y-50180974I0J-225025D01*
G01*
X150843051Y-50631026D01*
G75*
G02*
X150618026Y-50856051I-225025J0D01*
G01*
G37*
G36*
G01*
X150618026Y-52406051D02*
X150117974Y-52406051D01*
G75*
G02*
X149892949Y-52181026I0J225025D01*
G01*
X149892949Y-51730974D01*
G75*
G02*
X150117974Y-51505949I225025J0D01*
G01*
X150618026Y-51505949D01*
G75*
G02*
X150843051Y-51730974I0J-225025D01*
G01*
X150843051Y-52181026D01*
G75*
G02*
X150618026Y-52406051I-225025J0D01*
G01*
G37*
%TD*%
%TO.C,C21*%
G36*
G01*
X146935026Y-45395051D02*
X146434974Y-45395051D01*
G75*
G02*
X146209949Y-45170026I0J225025D01*
G01*
X146209949Y-44719974D01*
G75*
G02*
X146434974Y-44494949I225025J0D01*
G01*
X146935026Y-44494949D01*
G75*
G02*
X147160051Y-44719974I0J-225025D01*
G01*
X147160051Y-45170026D01*
G75*
G02*
X146935026Y-45395051I-225025J0D01*
G01*
G37*
G36*
G01*
X146935026Y-46945051D02*
X146434974Y-46945051D01*
G75*
G02*
X146209949Y-46720026I0J225025D01*
G01*
X146209949Y-46269974D01*
G75*
G02*
X146434974Y-46044949I225025J0D01*
G01*
X146935026Y-46044949D01*
G75*
G02*
X147160051Y-46269974I0J-225025D01*
G01*
X147160051Y-46720026D01*
G75*
G02*
X146935026Y-46945051I-225025J0D01*
G01*
G37*
%TD*%
%TO.C,C18*%
G36*
G01*
X136895051Y-97139970D02*
X136895051Y-98440030D01*
G75*
G02*
X136645030Y-98690051I-250021J0D01*
G01*
X135994970Y-98690051D01*
G75*
G02*
X135744949Y-98440030I0J250021D01*
G01*
X135744949Y-97139970D01*
G75*
G02*
X135994970Y-96889949I250021J0D01*
G01*
X136645030Y-96889949D01*
G75*
G02*
X136895051Y-97139970I0J-250021D01*
G01*
G37*
G36*
G01*
X139845051Y-97139970D02*
X139845051Y-98440030D01*
G75*
G02*
X139595030Y-98690051I-250021J0D01*
G01*
X138944970Y-98690051D01*
G75*
G02*
X138694949Y-98440030I0J250021D01*
G01*
X138694949Y-97139970D01*
G75*
G02*
X138944970Y-96889949I250021J0D01*
G01*
X139595030Y-96889949D01*
G75*
G02*
X139845051Y-97139970I0J-250021D01*
G01*
G37*
%TD*%
%TO.C,C17*%
G36*
G01*
X148749974Y-103319949D02*
X149700026Y-103319949D01*
G75*
G02*
X149950051Y-103569974I0J-250025D01*
G01*
X149950051Y-104070026D01*
G75*
G02*
X149700026Y-104320051I-250025J0D01*
G01*
X148749974Y-104320051D01*
G75*
G02*
X148499949Y-104070026I0J250025D01*
G01*
X148499949Y-103569974D01*
G75*
G02*
X148749974Y-103319949I250025J0D01*
G01*
G37*
G36*
G01*
X148749974Y-101419949D02*
X149700026Y-101419949D01*
G75*
G02*
X149950051Y-101669974I0J-250025D01*
G01*
X149950051Y-102170026D01*
G75*
G02*
X149700026Y-102420051I-250025J0D01*
G01*
X148749974Y-102420051D01*
G75*
G02*
X148499949Y-102170026I0J250025D01*
G01*
X148499949Y-101669974D01*
G75*
G02*
X148749974Y-101419949I250025J0D01*
G01*
G37*
%TD*%
%TO.C,C16*%
G36*
G01*
X154220036Y-100265051D02*
X153119964Y-100265051D01*
G75*
G02*
X152869949Y-100015036I0J250015D01*
G01*
X152869949Y-97514964D01*
G75*
G02*
X153119964Y-97264949I250015J0D01*
G01*
X154220036Y-97264949D01*
G75*
G02*
X154470051Y-97514964I0J-250015D01*
G01*
X154470051Y-100015036D01*
G75*
G02*
X154220036Y-100265051I-250015J0D01*
G01*
G37*
G36*
G01*
X154220036Y-104665051D02*
X153119964Y-104665051D01*
G75*
G02*
X152869949Y-104415036I0J250015D01*
G01*
X152869949Y-101914964D01*
G75*
G02*
X153119964Y-101664949I250015J0D01*
G01*
X154220036Y-101664949D01*
G75*
G02*
X154470051Y-101914964I0J-250015D01*
G01*
X154470051Y-104415036D01*
G75*
G02*
X154220036Y-104665051I-250015J0D01*
G01*
G37*
%TD*%
%TO.C,C13*%
G36*
G01*
X144129970Y-103134949D02*
X145430030Y-103134949D01*
G75*
G02*
X145680051Y-103384970I0J-250021D01*
G01*
X145680051Y-104035030D01*
G75*
G02*
X145430030Y-104285051I-250021J0D01*
G01*
X144129970Y-104285051D01*
G75*
G02*
X143879949Y-104035030I0J250021D01*
G01*
X143879949Y-103384970D01*
G75*
G02*
X144129970Y-103134949I250021J0D01*
G01*
G37*
G36*
G01*
X144129970Y-100184949D02*
X145430030Y-100184949D01*
G75*
G02*
X145680051Y-100434970I0J-250021D01*
G01*
X145680051Y-101085030D01*
G75*
G02*
X145430030Y-101335051I-250021J0D01*
G01*
X144129970Y-101335051D01*
G75*
G02*
X143879949Y-101085030I0J250021D01*
G01*
X143879949Y-100434970D01*
G75*
G02*
X144129970Y-100184949I250021J0D01*
G01*
G37*
%TD*%
%TO.C,C12*%
G36*
G01*
X166337026Y-45651051D02*
X165386974Y-45651051D01*
G75*
G02*
X165136949Y-45401026I0J250025D01*
G01*
X165136949Y-44900974D01*
G75*
G02*
X165386974Y-44650949I250025J0D01*
G01*
X166337026Y-44650949D01*
G75*
G02*
X166587051Y-44900974I0J-250025D01*
G01*
X166587051Y-45401026D01*
G75*
G02*
X166337026Y-45651051I-250025J0D01*
G01*
G37*
G36*
G01*
X166337026Y-47551051D02*
X165386974Y-47551051D01*
G75*
G02*
X165136949Y-47301026I0J250025D01*
G01*
X165136949Y-46800974D01*
G75*
G02*
X165386974Y-46550949I250025J0D01*
G01*
X166337026Y-46550949D01*
G75*
G02*
X166587051Y-46800974I0J-250025D01*
G01*
X166587051Y-47301026D01*
G75*
G02*
X166337026Y-47551051I-250025J0D01*
G01*
G37*
%TD*%
%TO.C,C10*%
G36*
G01*
X165350026Y-105085051D02*
X164849974Y-105085051D01*
G75*
G02*
X164624949Y-104860026I0J225025D01*
G01*
X164624949Y-104409974D01*
G75*
G02*
X164849974Y-104184949I225025J0D01*
G01*
X165350026Y-104184949D01*
G75*
G02*
X165575051Y-104409974I0J-225025D01*
G01*
X165575051Y-104860026D01*
G75*
G02*
X165350026Y-105085051I-225025J0D01*
G01*
G37*
G36*
G01*
X165350026Y-106635051D02*
X164849974Y-106635051D01*
G75*
G02*
X164624949Y-106410026I0J225025D01*
G01*
X164624949Y-105959974D01*
G75*
G02*
X164849974Y-105734949I225025J0D01*
G01*
X165350026Y-105734949D01*
G75*
G02*
X165575051Y-105959974I0J-225025D01*
G01*
X165575051Y-106410026D01*
G75*
G02*
X165350026Y-106635051I-225025J0D01*
G01*
G37*
%TD*%
%TO.C,C8*%
G36*
G01*
X175735026Y-96705051D02*
X174784974Y-96705051D01*
G75*
G02*
X174534949Y-96455026I0J250025D01*
G01*
X174534949Y-95954974D01*
G75*
G02*
X174784974Y-95704949I250025J0D01*
G01*
X175735026Y-95704949D01*
G75*
G02*
X175985051Y-95954974I0J-250025D01*
G01*
X175985051Y-96455026D01*
G75*
G02*
X175735026Y-96705051I-250025J0D01*
G01*
G37*
G36*
G01*
X175735026Y-98605051D02*
X174784974Y-98605051D01*
G75*
G02*
X174534949Y-98355026I0J250025D01*
G01*
X174534949Y-97854974D01*
G75*
G02*
X174784974Y-97604949I250025J0D01*
G01*
X175735026Y-97604949D01*
G75*
G02*
X175985051Y-97854974I0J-250025D01*
G01*
X175985051Y-98355026D01*
G75*
G02*
X175735026Y-98605051I-250025J0D01*
G01*
G37*
%TD*%
%TO.C,C7*%
G36*
G01*
X148193970Y-56906949D02*
X149494030Y-56906949D01*
G75*
G02*
X149744051Y-57156970I0J-250021D01*
G01*
X149744051Y-57807030D01*
G75*
G02*
X149494030Y-58057051I-250021J0D01*
G01*
X148193970Y-58057051D01*
G75*
G02*
X147943949Y-57807030I0J250021D01*
G01*
X147943949Y-57156970D01*
G75*
G02*
X148193970Y-56906949I250021J0D01*
G01*
G37*
G36*
G01*
X148193970Y-53956949D02*
X149494030Y-53956949D01*
G75*
G02*
X149744051Y-54206970I0J-250021D01*
G01*
X149744051Y-54857030D01*
G75*
G02*
X149494030Y-55107051I-250021J0D01*
G01*
X148193970Y-55107051D01*
G75*
G02*
X147943949Y-54857030I0J250021D01*
G01*
X147943949Y-54206970D01*
G75*
G02*
X148193970Y-53956949I250021J0D01*
G01*
G37*
%TD*%
%TO.C,C6*%
G36*
G01*
X144467949Y-59784026D02*
X144467949Y-58833974D01*
G75*
G02*
X144717974Y-58583949I250025J0D01*
G01*
X145218026Y-58583949D01*
G75*
G02*
X145468051Y-58833974I0J-250025D01*
G01*
X145468051Y-59784026D01*
G75*
G02*
X145218026Y-60034051I-250025J0D01*
G01*
X144717974Y-60034051D01*
G75*
G02*
X144467949Y-59784026I0J250025D01*
G01*
G37*
G36*
G01*
X142567949Y-59784026D02*
X142567949Y-58833974D01*
G75*
G02*
X142817974Y-58583949I250025J0D01*
G01*
X143318026Y-58583949D01*
G75*
G02*
X143568051Y-58833974I0J-250025D01*
G01*
X143568051Y-59784026D01*
G75*
G02*
X143318026Y-60034051I-250025J0D01*
G01*
X142817974Y-60034051D01*
G75*
G02*
X142567949Y-59784026I0J250025D01*
G01*
G37*
%TD*%
%TO.C,C3*%
G36*
G01*
X169052030Y-44693051D02*
X167751970Y-44693051D01*
G75*
G02*
X167501949Y-44443030I0J250021D01*
G01*
X167501949Y-43792970D01*
G75*
G02*
X167751970Y-43542949I250021J0D01*
G01*
X169052030Y-43542949D01*
G75*
G02*
X169302051Y-43792970I0J-250021D01*
G01*
X169302051Y-44443030D01*
G75*
G02*
X169052030Y-44693051I-250021J0D01*
G01*
G37*
G36*
G01*
X169052030Y-47643051D02*
X167751970Y-47643051D01*
G75*
G02*
X167501949Y-47393030I0J250021D01*
G01*
X167501949Y-46742970D01*
G75*
G02*
X167751970Y-46492949I250021J0D01*
G01*
X169052030Y-46492949D01*
G75*
G02*
X169302051Y-46742970I0J-250021D01*
G01*
X169302051Y-47393030D01*
G75*
G02*
X169052030Y-47643051I-250021J0D01*
G01*
G37*
%TD*%
%TO.C,C2*%
G36*
G01*
X168264051Y-53578970D02*
X168264051Y-54879030D01*
G75*
G02*
X168014030Y-55129051I-250021J0D01*
G01*
X167363970Y-55129051D01*
G75*
G02*
X167113949Y-54879030I0J250021D01*
G01*
X167113949Y-53578970D01*
G75*
G02*
X167363970Y-53328949I250021J0D01*
G01*
X168014030Y-53328949D01*
G75*
G02*
X168264051Y-53578970I0J-250021D01*
G01*
G37*
G36*
G01*
X171214051Y-53578970D02*
X171214051Y-54879030D01*
G75*
G02*
X170964030Y-55129051I-250021J0D01*
G01*
X170313970Y-55129051D01*
G75*
G02*
X170063949Y-54879030I0J250021D01*
G01*
X170063949Y-53578970D01*
G75*
G02*
X170313970Y-53328949I250021J0D01*
G01*
X170964030Y-53328949D01*
G75*
G02*
X171214051Y-53578970I0J-250021D01*
G01*
G37*
%TD*%
%TO.C,C1*%
G36*
G01*
X156177026Y-50350051D02*
X155226974Y-50350051D01*
G75*
G02*
X154976949Y-50100026I0J250025D01*
G01*
X154976949Y-49599974D01*
G75*
G02*
X155226974Y-49349949I250025J0D01*
G01*
X156177026Y-49349949D01*
G75*
G02*
X156427051Y-49599974I0J-250025D01*
G01*
X156427051Y-50100026D01*
G75*
G02*
X156177026Y-50350051I-250025J0D01*
G01*
G37*
G36*
G01*
X156177026Y-52250051D02*
X155226974Y-52250051D01*
G75*
G02*
X154976949Y-52000026I0J250025D01*
G01*
X154976949Y-51499974D01*
G75*
G02*
X155226974Y-51249949I250025J0D01*
G01*
X156177026Y-51249949D01*
G75*
G02*
X156427051Y-51499974I0J-250025D01*
G01*
X156427051Y-52000026D01*
G75*
G02*
X156177026Y-52250051I-250025J0D01*
G01*
G37*
%TD*%
M02*
